<?xml version="1.0" standalone="no"?><!DOCTYPE svg PUBLIC "-//W3C//DTD SVG 1.1//EN" "http://www.w3.org/Graphics/SVG/1.1/DTD/svg11.dtd"><svg class="icon" width="200px" height="200.00px" viewBox="0 0 1024 1024" version="1.1" xmlns="http://www.w3.org/2000/svg"><path d="M754.5 573.1c-16.8-14.3-42.1-12.3-56.4 4.5l-76.4 89.6-25.8-30.5c-14.3-16.9-39.5-19-56.4-4.7s-19 39.5-4.7 56.4l32.7 38.6 2.5 2.1c14.1 12 32.5 18.6 51.7 18.6s37.6-6.6 51.7-18.6l2.5-2.1 83.1-97.5c14.3-16.8 12.3-42.1-4.5-56.4zM348.3 562.8c-51.2 0-92.8 41.6-92.8 92.8s41.6 92.8 92.8 92.8 92.8-41.6 92.8-92.8-41.6-92.8-92.8-92.8z m0 105.6c-7.1 0-12.8-5.8-12.8-12.8s5.8-12.8 12.8-12.8 12.8 5.8 12.8 12.8-5.7 12.8-12.8 12.8zM348.3 275.6c-51.2 0-92.8 41.6-92.8 92.8s41.6 92.8 92.8 92.8 92.8-41.6 92.8-92.8-41.6-92.8-92.8-92.8z m0 105.6c-7.1 0-12.8-5.8-12.8-12.8s5.8-12.8 12.8-12.8 12.8 5.8 12.8 12.8-5.7 12.8-12.8 12.8zM641.3 461.2c51.2 0 92.8-41.6 92.8-92.8s-41.6-92.8-92.8-92.8-92.8 41.6-92.8 92.8 41.6 92.8 92.8 92.8z m0-105.6c7.1 0 12.8 5.8 12.8 12.8s-5.8 12.8-12.8 12.8-12.8-5.8-12.8-12.8 5.7-12.8 12.8-12.8z"  /><path d="M813.2 99.7H210.8c-81.6 0-148.1 66.4-148.1 148.1v528.5c0 81.6 66.4 148.1 148.1 148.1h602.5c81.6 0 148.1-66.4 148.1-148.1V247.8c-0.1-81.7-66.5-148.1-148.2-148.1z m63.5 676.5c0 35-28.5 63.5-63.5 63.5H210.8c-35 0-63.5-28.5-63.5-63.5V247.8c0-35 28.5-63.5 63.5-63.5h602.5c35 0 63.5 28.5 63.5 63.5v528.4z"  /></svg>