<?xml version="1.0" standalone="no"?><!DOCTYPE svg PUBLIC "-//W3C//DTD SVG 1.1//EN" "http://www.w3.org/Graphics/SVG/1.1/DTD/svg11.dtd"><svg class="icon" width="200px" height="200.00px" viewBox="0 0 1024 1024" version="1.1" xmlns="http://www.w3.org/2000/svg"><path d="M769.1 69H254.9C171.7 69 104 136.7 104 219.9v584.2c0 83.2 67.7 150.9 150.9 150.9h514.2c83.2 0 150.9-67.7 150.9-150.9V219.9C920 136.7 852.3 69 769.1 69zM840 804.1c0 39.1-31.8 70.9-70.9 70.9H254.9c-39.1 0-70.9-31.8-70.9-70.9V219.9c0-39.1 31.8-70.9 70.9-70.9h514.2c39.1 0 70.9 31.8 70.9 70.9v584.2z"  /><path d="M577.2 334c-10.6-27-36.2-44.5-65.2-44.5S457.4 307 446.8 334L311.4 679.9c-8 20.6 2.1 43.8 22.7 51.8 4.8 1.9 9.7 2.8 14.6 2.8 16 0 31.1-9.7 37.3-25.4l48.5-123.8h155.2l48.5 123.8c8 20.6 31.3 30.7 51.8 22.7 20.6-8 30.7-31.3 22.7-51.8L577.2 334zM465.7 505.3L512 386.9l46.3 118.3h-92.6z"  /></svg>